<?xml version="1.0" standalone="no"?>
<!DOCTYPE svg PUBLIC "-//W3C//DTD SVG 1.1//EN" "http://www.w3.org/Graphics/SVG/1.1/DTD/svg11.dtd">
<svg xmlns="http://www.w3.org/2000/svg" xmlns:xlink="http://www.w3.org/1999/xlink" width="200" height="200" viewBox="0 0 200 200" version="1.1">
    <g stroke="none" stroke-width="1" fill="none" fill-rule="evenodd">
        <g>
            <g transform="translate(0.000000, 36.000000)">
                <g transform="translate(99.927376, 64.557734) scale(-1, 1) rotate(-180.000000) translate(-99.927376, -64.557734) translate(0.000000, 0.360205)" fill-rule="nonzero">
                    <g>
                        <path d="M52.4695993,37.4232946 C52.4703993,37.4224946 52.4703993,37.4224946 52.4703993,37.4224946 L52.4707993,37.4224946 L52.4695993,37.4205946 L52.4695993,37.4232946 L52.4695993,37.4232946 Z M150.484237,37.062657 C150.580098,36.9893963 150.771238,36.8464188 150.982131,36.5722576 L150.982131,36.5722576 C151.000141,36.5484377 151.017571,36.524153 151.036162,36.499636 L151.036162,36.499636 L150.52781,39.0164115 C150.442407,39.436978 150.354099,39.8565567 150.261725,40.2752641 L150.261725,40.2752641 C150.255334,40.2237898 150.248943,40.1720251 150.242553,40.1202604 L150.242553,40.1202604 C150.207113,39.8250099 150.176903,39.5177332 150.148435,39.1907035 L150.148435,39.1907035 C150.120548,38.8931871 150.099633,38.5881762 150.083947,38.2750317 L150.083947,38.2750317 C150.068842,37.9851842 150.058384,37.6981254 150.051993,37.4053731 L150.051993,37.4053731 C150.10951,37.3606381 150.150759,37.3263607 150.178065,37.3059686 L150.178065,37.3059686 L150.197237,37.2914442 L150.224542,37.2694254 C150.279154,37.2240514 150.340156,37.1752496 150.416263,37.1126207 L150.416263,37.1126207 C150.431369,37.102628 150.454027,37.0858379 150.484237,37.062657 Z M54.8815092,40.6994325 L52.4464184,37.4419163 C28.121597,55.6154525 6.33214218,55.9577038 4.73425115,55.9577038 L4.73425115,55.9577038 C4.71337098,55.9577038 4.69748717,55.9577038 4.6879534,55.9577038 L4.6879534,55.9577038 L0,55.7704561 L3.06939716,59.319098 C14.2769495,72.2730556 23.4252427,81.4390684 29.9214517,87.2929535 L29.9214517,87.2929535 C29.4968765,87.7466935 29.0784016,88.2103101 28.6678279,88.6826412 L28.6678279,88.6826412 C27.8220472,89.6534473 27.0104859,90.6666644 26.2474939,91.7205496 L26.2474939,91.7205496 C25.4836304,92.7750158 24.7710088,93.8718931 24.1231076,95.0111814 L24.1231076,95.0111814 C23.4763102,96.1504696 22.8955695,97.3339119 22.4005804,98.5597651 L22.4005804,98.5597651 C22.1868404,99.0867078 21.9934926,99.6328225 21.8616117,100.21031 L21.8616117,100.21031 C21.7562812,100.664631 21.6880169,101.141029 21.6880169,101.640085 L21.6880169,101.640085 C21.6880169,101.796947 21.6955114,101.952067 21.7086414,102.107187 L21.7086414,102.107187 C21.766274,102.785764 21.9839065,103.496294 22.3651992,104.12084 L22.3651992,104.12084 C22.7528244,104.766882 23.289295,105.307768 23.9177336,105.759765 L23.9177336,105.759765 C24.4773269,106.159474 25.0632964,106.485981 25.655889,106.758458 L25.655889,106.758458 C26.2502245,107.029772 26.8539136,107.249961 27.4466805,107.42832 L27.4466805,107.42832 C28.0480458,107.611907 28.6424394,107.755989 29.2143493,107.879736 L29.2143493,107.879736 C29.7939281,108.002902 30.3549157,108.103411 30.8844146,108.195785 L30.8844146,108.195785 C32.1738845,108.418879 33.4708488,108.588523 34.7689752,108.715756 L34.7689752,108.715756 C36.0636738,108.841246 37.3593019,108.926068 38.6540005,108.979518 L38.6540005,108.979518 C39.9457361,109.030644 41.2357288,109.052721 42.5179365,109.053883 L42.5179365,109.053883 C43.8001441,109.052721 45.075322,109.032387 46.3428311,109.001595 L46.3428311,109.001595 C46.5983431,108.994042 46.8572828,108.98649 47.1262152,108.979518 L47.1262152,108.979518 C47.375627,108.969641 47.6302675,108.961508 47.8892072,108.952793 L47.8892072,108.952793 C48.1483793,108.944079 48.4100496,108.934202 48.6689893,108.922002 L48.6689893,108.922002 C48.9344941,108.910963 49.1923299,108.897601 49.4453437,108.8854 L49.4453437,108.8854 L49.4635282,108.8854 L49.4918797,108.883076 C49.6128383,108.873781 49.7009138,108.862161 49.7837025,108.84938 L49.7837025,108.84938 C50.0876095,109.024834 50.3914584,109.190992 50.6933321,109.349017 L50.6933321,109.349017 C51.1712406,109.600578 51.650311,109.831806 52.1262442,110.050251 L52.1262442,110.050251 C52.6078128,110.271602 53.0918796,110.478429 53.5697881,110.671312 L53.5697881,110.671312 C54.0552492,110.869424 54.5354235,111.053011 55.0122281,111.230208 L55.0122281,111.230208 C55.9413784,111.570077 56.8824968,111.877993 57.8345374,112.150469 L57.8345374,112.150469 C58.7892505,112.422946 59.7542469,112.658821 60.7331866,112.856933 L60.7331866,112.856933 C61.7074785,113.05272 62.6928089,113.210164 63.6880158,113.325197 L63.6880158,113.325197 C64.677994,113.437906 65.6790107,113.509946 66.6591123,113.532023 L66.6591123,113.532023 C66.710238,113.533766 66.7596207,113.534928 66.8072605,113.535509 L66.8072605,113.535509 C66.840376,113.570949 66.8636149,113.595349 66.8758153,113.608712 L66.8758153,113.608712 L66.9112547,113.646475 L66.9327507,113.668552 C66.96819,113.703991 67.0262874,113.765574 67.1116904,113.850978 L67.1116904,113.850978 L67.1116904,113.850978 C67.1877979,113.930571 67.2365996,113.976468 67.2644863,114.006097 L67.2644863,114.006097 C67.4074057,114.150179 67.5480012,114.289612 67.7077688,114.448799 L67.7077688,114.448799 C67.8448785,114.58068 67.9877979,114.718951 68.1301363,114.854318 L68.1301363,114.854318 C68.2899039,115.007114 68.4415379,115.14771 68.590848,115.284819 L68.590848,115.284819 C68.7384151,115.420186 68.8865633,115.554972 69.0358734,115.688015 L69.0358734,115.688015 C69.3658661,115.986054 69.7005066,116.274797 70.0293374,116.552503 L70.0293374,116.552503 C70.3692067,116.839503 70.7090759,117.117208 71.0512691,117.389685 L71.0512691,117.389685 C71.3952052,117.662161 71.7408842,117.928828 72.0964397,118.196656 L72.0964397,118.196656 C72.4426997,118.454609 72.7959314,118.711399 73.1526489,118.964703 L73.1526489,118.964703 C74.7305718,120.081333 76.3729828,121.097455 78.0641956,122.013069 L78.0641956,122.013069 C79.7600561,122.929844 81.5029754,123.743788 83.285401,124.456642 L83.285401,124.456642 C85.0701504,125.169496 86.892663,125.783003 88.7471292,126.291355 L88.7471292,126.291355 C90.5986905,126.800868 92.4804625,127.206968 94.3785016,127.507913 L94.3785016,127.507913 C95.363832,127.665356 96.3555531,127.793751 97.3420455,127.894841 L97.3420455,127.894841 C98.3331856,127.997673 99.3272306,128.073199 100.317209,128.122582 L100.317209,128.122582 C101.275233,128.171384 102.237906,128.195785 103.200578,128.195785 L103.200578,128.195785 C103.244732,128.195785 103.282496,128.195785 103.298763,128.195785 L103.298763,128.195785 C104.288741,128.194623 105.281624,128.171384 106.27625,128.122582 L106.27625,128.122582 C106.815393,128.095857 107.364413,128.084819 107.920404,128.084819 L107.920404,128.084819 C108.252721,128.084819 108.58678,128.088305 108.917935,128.094695 L108.917935,128.094695 C109.815538,128.113868 110.727085,128.152793 111.656061,128.196947 L111.656061,128.196947 C112.580389,128.237615 113.522728,128.281769 114.481333,128.305008 L114.481333,128.305008 C114.922873,128.316046 115.367317,128.323018 115.815248,128.321856 L115.815248,128.321856 C116.343933,128.321856 116.87959,128.311979 117.412924,128.289902 L117.412924,128.289902 C119.50617,128.205661 121.595349,128.030788 123.67349,127.776903 L123.67349,127.776903 C125.753955,127.522437 127.825124,127.184892 129.880026,126.77182 L129.880026,126.77182 C131.934928,126.358748 133.972981,125.868406 135.985472,125.308929 L135.985472,125.308929 C138.003773,124.747128 139.993025,124.114449 141.952647,123.417281 L141.952647,123.417281 C143.779808,122.76601 145.604644,122.048508 147.413794,121.252575 L147.413794,121.252575 C149.217135,120.45548 150.997818,119.579953 152.732022,118.61089 L152.732022,118.61089 C154.468551,117.642989 156.158021,116.582713 157.778936,115.419024 L157.778936,115.419024 C159.402175,114.253011 160.952211,112.983004 162.404644,111.597964 L162.404644,111.597964 C162.763685,111.258095 163.112269,110.911835 163.4533,110.560346 L163.4533,110.560346 C163.794331,110.208276 164.128391,109.848654 164.453155,109.483222 L164.453155,109.483222 C164.783729,109.112561 165.102683,108.735509 165.415246,108.349743 L165.415246,108.349743 C165.722,107.970949 166.024106,107.579954 166.317498,107.180244 L166.317498,107.180244 C166.430206,107.025705 166.639938,106.760782 166.888594,106.445894 L166.888594,106.445894 C167.133184,106.132169 167.417861,105.763251 167.696147,105.355408 L167.696147,105.355408 L167.854172,105.123018 L168.562959,103.0106 L168.56993,102.987361 C168.737832,102.405226 168.786633,101.853883 168.786633,101.357732 L168.786633,101.357732 C168.78431,100.509511 168.654753,99.8030476 168.594331,99.2883054 L168.594331,99.2883054 C168.475813,98.3372524 168.331731,97.3850375 168.156859,96.4397942 L168.156859,96.4397942 C167.983729,95.4904842 167.778064,94.5452409 167.538703,93.6029025 L167.538703,93.6029025 C167.297599,92.6675358 167.025123,91.7385598 166.709655,90.8060979 L166.709655,90.8060979 C166.621928,90.5539556 166.531877,90.2977465 166.433692,90.0334037 L166.433692,90.0334037 C166.334927,89.7719658 166.233257,89.508785 166.118224,89.2328228 L166.118224,89.2328228 C166.02062,89.0004335 165.914302,88.7541009 165.796365,88.4996347 L165.796365,88.4996347 C166.15192,88.2103101 166.497599,87.908785 166.829335,87.5962215 L166.829335,87.5962215 C167.179081,87.2668097 167.521855,86.9240356 167.854172,86.5609274 L167.854172,86.5609274 C168.174288,86.2106006 168.489756,85.8469114 168.793024,85.4640502 L168.793024,85.4640502 C169.092225,85.0875796 169.378645,84.7012325 169.653445,84.3015229 L169.653445,84.3015229 C169.960199,83.8530117 170.248943,83.3946239 170.520257,82.9263596 L170.520257,82.9263596 C170.793896,82.4522855 171.048362,81.9689159 171.279008,81.4826414 L171.279008,81.4826414 C171.514302,80.9911381 171.7281,80.496149 171.928536,79.9843117 L171.928536,79.9843117 C171.976757,79.8582406 172.023816,79.7321694 172.069712,79.6066792 L172.069712,79.6066792 C172.119676,79.611327 172.17545,79.6171367 172.241681,79.6235274 L172.241681,79.6235274 C172.475813,79.6444425 172.71285,79.6636146 172.937105,79.6810438 L172.937105,79.6810438 C173.175304,79.7013778 173.416989,79.719969 173.656931,79.7344933 L173.656931,79.7344933 C173.89513,79.7519225 174.128681,79.7652849 174.363394,79.7798092 L174.363394,79.7798092 C174.595203,79.7931716 174.833983,79.805372 175.07102,79.8164105 L175.07102,79.8164105 C176.122,79.8657932 177.176466,79.8884512 178.230932,79.8884512 L178.230932,79.8884512 C179.237178,79.8884512 180.242842,79.8663742 181.247926,79.8228012 L181.247926,79.8228012 C183.306894,79.7333313 185.362958,79.5503248 187.403917,79.2772674 L187.403917,79.2772674 C189.44778,79.0071149 191.479443,78.6428448 193.490772,78.1879429 L193.490772,78.1879429 C195.498615,77.7330409 197.489029,77.1886691 199.449813,76.5513416 L199.449813,76.5513416 L198.547562,72.6030483 C196.415391,72.8929539 194.250104,73.1247622 192.065064,73.2885966 L192.065064,73.2885966 C189.885834,73.452431 187.689756,73.5453867 185.482639,73.5529393 L185.482639,73.5529393 C185.412922,73.5529393 185.337396,73.5541013 185.252573,73.5529393 L185.252573,73.5529393 C183.150032,73.5541013 181.053881,73.4721841 178.977483,73.2973112 L178.977483,73.2973112 C177.119531,73.1421913 175.278427,72.9103831 173.471601,72.5937527 L173.471601,72.5937527 C173.473924,72.5420461 173.476248,72.4920824 173.478572,72.4450236 L173.478572,72.4450236 C173.482058,72.370659 173.484963,72.2980374 173.487287,72.2277397 L173.487287,72.2277397 C173.497163,72.2271587 173.506459,72.2259967 173.516336,72.2254158 L173.516336,72.2254158 C173.639502,72.2155392 173.763249,72.2045007 173.875377,72.1946242 L173.875377,72.1946242 C174.490627,72.1400127 175.104135,72.0749437 175.71009,72.004065 L175.71009,72.004065 C176.326502,71.9331863 176.937686,71.8512691 177.546546,71.7647041 L177.546546,71.7647041 C178.147853,71.6775581 178.757875,71.5834405 179.362668,71.4782843 L179.362668,71.4782843 C179.970366,71.3760331 180.576902,71.2644862 181.179371,71.1448058 L181.179371,71.1448058 C182.413939,70.9002161 183.640373,70.6236729 184.860998,70.3134332 L184.860998,70.3134332 C186.078717,70.0026126 187.288884,69.6592575 188.490337,69.2845299 L188.490337,69.2845299 C189.691208,68.9074783 190.882203,68.4967303 192.065064,68.0546098 L192.065064,68.0546098 C193.23863,67.6107463 194.405805,67.1378342 195.560779,66.6265779 L195.560779,66.6265779 L194.262885,62.7904124 C193.215391,63.0425547 192.164411,63.273782 191.101811,63.4864182 L191.101811,63.4864182 C190.040373,63.7002163 188.973125,63.8960042 187.906459,64.074363 L187.906459,64.074363 C186.834563,64.2527217 185.762087,64.4142322 184.686706,64.5594755 L184.686706,64.5594755 C183.610743,64.7064617 182.533038,64.8371807 181.454752,64.9545372 L181.454752,64.9545372 C180.767461,65.0277398 180.080751,65.0951327 179.396945,65.154973 L179.396945,65.154973 C178.706749,65.2136512 178.019458,65.2659388 177.33391,65.3077689 L177.33391,65.3077689 C176.650685,65.3519228 175.966299,65.3844573 175.284818,65.4094392 L175.284818,65.4094392 C174.59346,65.4320971 173.908492,65.4483644 173.21423,65.4506883 L173.21423,65.4506883 C173.145675,65.4512692 173.07712,65.4518502 173.009146,65.4518502 L173.009146,65.4518502 C173.002755,65.4152489 172.996365,65.3792286 172.990555,65.3432082 L172.990555,65.3432082 C172.930715,64.9986912 172.866227,64.655917 172.79651,64.3201146 L172.79651,64.3201146 C172.731441,64.0023223 172.662305,63.6705866 172.585036,63.3411749 L172.585036,63.3411749 C173.330424,63.1389962 174.071746,62.9240362 174.809582,62.6968757 L174.809582,62.6968757 C176.201593,62.2675366 177.580823,61.7969483 178.947853,61.2798823 L178.947853,61.2798823 C180.306749,60.7639781 181.654026,60.2068249 182.980388,59.6055178 L182.980388,59.6055178 C184.311397,59.0042106 185.622072,58.3587494 186.908928,57.6715744 L186.908928,57.6715744 L185.333329,53.9403908 C184.70123,54.1426275 184.070293,54.3355106 183.435871,54.5202601 L183.435871,54.5202601 C182.80261,54.7056486 182.162377,54.8833683 181.518078,55.0582993 L181.518078,55.0582993 C180.882494,55.2289892 180.234128,55.3939855 179.581695,55.55782 L179.581695,55.55782 C178.938558,55.7182847 178.288449,55.8732884 177.636016,56.0273624 L177.636016,56.0273624 C177.215391,56.1254307 176.792443,56.2207103 176.369495,56.314886 L176.369495,56.314886 C175.94887,56.4084227 175.527083,56.4978345 175.108783,56.5860843 L175.108783,56.5860843 C174.683511,56.6739274 174.256495,56.7588076 173.827737,56.8452564 L173.827737,56.8452564 C173.406532,56.9294394 172.985907,57.009788 172.571092,57.0846754 L172.571092,57.0846754 C172.317207,57.1301075 172.069132,57.1747843 171.826866,57.2183573 L171.826866,57.2183573 C171.593315,57.2594321 171.353373,57.2996355 171.102392,57.3427437 L171.102392,57.3427437 C171.002465,57.3588366 170.903118,57.375162 170.804353,57.3915454 L170.804353,57.3915454 C170.673053,57.0329688 170.540591,56.6861859 170.406386,56.3391707 L170.406386,56.3391707 C170.261724,55.9697299 170.114738,55.5991272 169.957875,55.216963 L169.957875,55.216963 C169.805079,54.849788 169.649959,54.4825549 169.486706,54.1042833 L169.486706,54.1042833 C169.414084,53.938125 169.340882,53.7713276 169.267679,53.6058665 L169.267679,53.6058665 L169.352501,53.4343051 L168.835435,52.4984155 C168.159763,51.2865637 168.028463,50.7498027 167.199415,49.3205507 L167.199415,49.3205507 C167.186052,49.2937678 167.179662,49.2828455 167.179662,49.2840075 L167.179662,49.2840075 C166.943206,48.8296284 166.703845,48.3857649 166.465065,47.9493379 L166.465065,47.9493379 C166.22338,47.5061136 165.975885,47.0622501 165.724905,46.6242545 L165.724905,46.6242545 C165.477411,46.1921267 165.227011,45.7563968 164.967897,45.3211318 L164.967897,45.3211318 L162.835726,41.7213642 L161.322872,45.6220758 C161.096292,46.2064186 160.869132,46.7862879 160.635581,47.3631361 L160.635581,47.3631361 C160.455479,47.8111244 160.268987,48.2602748 160.077265,48.7071012 L160.077265,48.7071012 C159.487578,47.5689748 158.88569,46.4320105 158.270439,45.2968471 L158.270439,45.2968471 C157.630788,44.1226423 156.976612,42.9559321 156.309655,41.7975879 L156.309655,41.7975879 C155.640374,40.6383723 154.955406,39.4882198 154.250105,38.3489896 L154.250105,38.3489896 L152.054608,34.8043564 C152.262596,34.401103 152.465937,33.9776317 152.664048,33.5437029 L152.664048,33.5437029 C153.171238,32.3624683 153.601158,31.3614516 153.730134,30.2198976 L153.730134,30.2198976 C153.860853,28.6675955 153.927084,27.0542913 153.927084,25.4413937 L153.927084,25.4413937 C153.906169,20.4137105 153.350178,15.5253446 151.937832,12.2928102 L151.937832,12.2928102 C151.442262,11.212084 150.858965,10.2366882 149.803918,9.52046454 L149.803918,9.52046454 C147.256351,7.87148855 143.610744,6.75038473 139.37545,5.9318517 L139.37545,5.9318517 C135.14829,5.12822064 130.366881,4.69135791 125.743497,4.69022501 L125.743497,4.69022501 C119.676395,4.70815384 113.948,5.39851257 109.912561,7.27552633 L109.912561,7.27552633 C105.859692,9.19093659 101.868407,11.9006533 98.5556983,14.3638631 L98.5556983,14.3638631 C97.265938,15.3238631 96.0732002,16.2527229 95.0309344,17.0788086 L95.0309344,17.0788086 C95.278429,15.8297164 95.581116,14.4196946 95.8989083,12.9877121 L95.8989083,12.9877121 C96.6994892,9.37748706 97.590121,5.65450095 97.9648487,3.70778785 L97.9648487,3.70778785 C98.0717477,3.11410885 98.1484362,2.79388809 98.1629605,2.24605368 L98.1629605,2.24605368 C98.1617986,2.14960053 98.1629605,2.03681041 98.1275211,1.82552791 L98.1275211,1.82552791 C98.0589663,1.62740446 98.0984725,1.2502251 97.4448777,0.607750166 L97.4448777,0.607750166 L97.4001428,0.57053361 L97.3623796,0.539669413 C96.9342024,0.193581985 96.3241806,0 95.8239627,0 L95.8239627,0 C95.8106004,0 95.797238,0 95.7832946,0.000680830775 L95.7832946,0.000680830775 C94.8014501,0.034949193 94.2710216,0.389206671 93.7382693,0.716909205 L93.7382693,0.716909205 C93.2171364,1.06368044 92.7250521,1.48216118 92.187071,1.9787131 L92.187071,1.9787131 C91.1198234,2.96886558 89.8928082,4.27650824 88.4653573,5.80564691 L88.4653573,5.80564691 C85.6214939,8.85914284 82.009003,12.7866373 77.8457497,16.4478718 L77.8457497,16.4478718 C77.8370351,16.4567607 73.8974564,19.9285398 68.74132,24.2973995 L68.74132,24.2973995 C63.5892504,28.6635287 57.2215527,33.9206382 52.4702964,37.4216984 L52.4702964,37.4216984 L54.8815092,40.6994325 Z M80.5339123,19.5021055 L80.5339123,19.5021055 C84.1127067,16.3514302 87.2511235,13.0659692 89.8300631,10.307044 L89.8300631,10.307044 C91.0599832,8.98713122 92.1789374,7.77800997 93.1363811,6.7769352 L93.1363811,6.7769352 C93.0806077,7.02228014 93.0236723,7.27326053 92.965575,7.52836582 L92.965575,7.52836582 C92.3102373,10.4053447 91.518952,13.8382567 90.9827138,16.5849814 L90.9827138,16.5849814 C90.6283202,18.4429335 90.3744349,19.8878717 90.3628155,21.0067097 L90.3628155,21.0067097 C90.3639774,21.2241099 90.3703681,21.437908 90.4180079,21.7104424 L90.4180079,21.7104424 C90.4836579,21.9793749 90.5132875,22.3377191 90.9716753,22.8948723 L90.9716753,22.8948723 C91.2615809,23.2627445 91.9471291,23.64334 92.5734182,23.6199849 L92.5734182,23.6199849 C93.2595474,23.6113284 93.6964392,23.3253734 93.9201138,23.1581113 L93.9201138,23.1581113 C95.2435706,22.1595928 97.7742895,20.0145238 100.983004,17.6262014 L100.983004,17.6262014 C104.17487,15.2487433 108.002321,12.6699779 111.647927,10.953609 L111.647927,10.953609 C114.630643,9.52046454 120.039503,8.73957858 125.743497,8.75700777 L125.743497,8.75700777 C130.106024,8.75700777 134.67654,9.17710943 138.615538,9.9276105 L138.615538,9.9276105 C142.54524,10.6626577 145.880025,11.7907913 147.572981,12.9214231 L147.572981,12.9214231 C147.58402,12.9166591 147.922727,13.2416554 148.225995,13.9508493 L148.225995,13.9508493 C148.540301,14.65098 148.848217,15.6606532 149.093969,16.8500214 L149.093969,16.8500214 C149.592444,19.2331731 149.862596,22.3354533 149.860272,25.4413937 L149.860272,25.4413937 C149.861434,26.9419311 149.79927,28.4472324 149.677847,29.8777044 L149.677847,29.8777044 C149.674361,29.8758453 149.670875,29.9339426 149.638921,30.057167 L149.638921,30.057167 C149.607549,30.1808562 149.557004,30.3506165 149.490773,30.5416986 L149.490773,30.5416986 C149.360054,30.9263609 149.168333,31.4004349 148.954535,31.875671 L148.954535,31.875671 C148.597818,32.6849665 148.130134,33.5419018 147.858239,33.951546 L147.858239,33.951546 C147.808275,33.992156 147.754826,34.035729 147.693242,34.0867965 L147.693242,34.0867965 L147.692662,34.0863318 C147.589829,34.1671451 147.523017,34.2222795 147.464339,34.2658524 L147.464339,34.2658524 C147.410309,34.3076244 147.341754,34.3600282 147.274942,34.4115605 L147.274942,34.4115605 C147.063468,34.5726643 146.840955,34.7560195 146.597527,35.049469 L146.597527,35.049469 C146.352938,35.3462882 146.16354,35.7391422 146.081623,36.0579802 L146.081623,36.0579802 C145.970657,36.4740151 145.980534,36.7610739 145.976467,36.9308342 L145.976467,36.9308342 C145.976467,37.1078567 145.982277,37.260827 145.985182,37.423267 L145.985182,37.423267 C145.990991,37.7837028 146.003773,38.1397231 146.022945,38.4865059 L146.022945,38.4865059 C146.039793,38.8414805 146.064775,39.201161 146.09789,39.5538116 L146.09789,39.5538116 C146.126358,39.8937971 146.161216,40.2476097 146.204789,40.6093236 L146.204789,40.6093236 C146.2472,40.9556417 146.293097,41.299694 146.343642,41.646012 L146.343642,41.646012 C146.432531,42.2558014 146.536525,42.8583286 146.651558,43.4631216 L146.651558,43.4631216 C146.767171,44.0633831 146.896147,44.6623083 147.036162,45.2555399 L147.036162,45.2555399 C147.176757,45.8503402 147.330134,46.4476386 147.496293,47.0338405 L147.496293,47.0338405 C147.662451,47.6270722 147.839648,48.2103111 148.027883,48.791749 L148.027883,48.791749 L149.70399,53.9601439 L151.833257,48.9608121 C152.152211,48.2103111 152.438631,47.4557432 152.700069,46.6991419 L152.700069,46.6991419 C152.922001,46.0543779 153.126503,45.4082777 153.317643,44.7576459 L153.317643,44.7576459 C153.785327,45.5807686 154.244876,46.4081906 154.696873,47.2394469 L154.696873,47.2394469 C155.320839,48.3857649 155.929698,49.5413205 156.532167,50.7026276 L156.532167,50.7026276 C157.133475,51.8629471 157.723743,53.0312841 158.31285,54.2036297 L158.31285,54.2036297 L160.053446,57.6754089 L161.914302,54.2674206 C162.234419,53.6819159 162.538849,53.0857213 162.822944,52.4931868 L162.822944,52.4931868 C163.058819,52.0093524 163.285399,51.518953 163.502683,51.0280307 L163.502683,51.0280307 C163.521274,51.0641091 163.539865,51.0988513 163.558456,51.1349297 L163.558456,51.1349297 L163.585181,51.1970939 L163.65025,51.3074206 C164.279444,52.3683938 164.407258,52.8383429 165.093968,54.1281032 L165.093968,54.1281032 C165.152066,54.3645593 165.235145,54.5540727 165.318224,54.7346973 L165.318224,54.7346973 C165.467534,55.0703254 165.617425,55.404385 165.756859,55.7228163 L165.756859,55.7228163 C165.90675,56.0738984 166.055479,56.4240509 166.198979,56.7681032 L166.198979,56.7681032 C166.340156,57.1155832 166.48017,57.4668395 166.618442,57.8154234 L166.618442,57.8154234 C166.756132,58.174 166.888594,58.5214219 167.000722,58.8316616 L167.000722,58.8316616 C167.031514,58.9205505 167.0594,58.9966579 167.082639,59.060565 L167.082639,59.060565 L167.097164,59.0977473 C167.097164,59.0977473 167.111107,59.1384154 167.159909,59.2732011 L167.159909,59.2732011 C167.172109,59.3045737 167.186633,59.3464037 167.206387,59.4033391 L167.206387,59.4033391 C167.222073,59.4469121 167.241245,59.5038475 167.266227,59.5758881 L167.266227,59.5758881 L167.265646,59.5758881 C167.286561,59.6357284 167.295275,59.6711677 167.326067,59.7920101 L167.326067,59.7920101 C167.370802,59.9064618 167.371383,60.1429179 167.660708,60.6001437 L167.660708,60.6001437 L168.155697,62.410456 C168.239357,62.7143049 168.320112,63.0193158 168.397962,63.3214218 L168.397962,63.3214218 C168.472327,63.6148132 168.544368,63.9151763 168.61757,64.2405213 L168.61757,64.2405213 C168.685544,64.5217123 168.747708,64.8185895 168.812196,65.1387057 L168.812196,65.1387057 C168.874941,65.4373259 168.930715,65.7342031 168.983583,66.039795 L168.983583,66.039795 C169.005079,66.169352 169.028318,66.3064617 169.054462,66.4691341 L169.054462,66.4691341 C169.077701,66.6033389 169.098616,66.7363818 169.119531,66.8734914 L169.119531,66.8734914 C169.138703,67.0071152 169.158456,67.1500346 169.177628,67.2865633 L169.177628,67.2865633 C169.197381,67.4323876 169.214811,67.5642685 169.228173,67.6868538 L169.228173,67.6868538 L169.42338,69.4454594 L169.776031,69.455336 C169.408856,70.103121 169.455914,70.5394318 169.437323,70.7328958 L169.437323,70.7328958 C169.436161,70.7543918 169.434999,70.7962219 169.434999,70.8537382 L169.434999,70.8537382 C169.434999,70.9908479 169.437323,71.1140142 169.437323,71.2586765 L169.437323,71.2586765 C169.437323,71.2830774 169.437323,71.3208406 169.437904,71.3713853 L169.437904,71.3713853 C169.437323,71.5160476 169.434418,71.659548 169.432095,71.8001434 L169.432095,71.8001434 C169.427447,71.9575872 169.42338,72.1028304 169.415827,72.2474927 L169.415827,72.2474927 C169.408856,72.4113272 169.401884,72.5565704 169.391426,72.7070425 L169.391426,72.7070425 C169.382131,72.8610004 169.372254,73.0091485 169.362959,73.1375436 L169.362959,73.1375436 C169.343787,73.365866 169.317062,73.5482916 169.312414,73.8742175 L169.312414,73.8742175 C169.316481,74.143208 169.317062,74.7340577 169.784164,75.3876524 L169.784164,75.3876524 C169.830061,75.4474927 169.87712,75.5032661 169.92476,75.5555537 L169.92476,75.5555537 C169.69818,75.656062 169.481477,75.7960765 169.324615,75.9448057 L169.324615,75.9448057 C169.082349,76.1690613 168.952211,76.3753067 168.851702,76.5490177 L168.851702,76.5490177 C168.653591,76.9342029 168.636742,77.0724745 168.565864,77.2688434 L168.565864,77.2688434 C168.437469,77.6906299 168.292806,78.1100925 168.137686,78.5121259 L168.137686,78.5121259 C167.975014,78.9263597 167.800141,79.330717 167.60842,79.7321694 L167.60842,79.7321694 C167.422509,80.1243262 167.218006,80.5106734 166.99956,80.8900488 L166.99956,80.8900488 C166.779371,81.2700052 166.54582,81.641828 166.301811,81.9973836 L166.301811,81.9973836 C166.080461,82.3174998 165.849233,82.6318062 165.609872,82.9333313 L165.609872,82.9333313 C165.372254,83.2307895 165.119531,83.5253429 164.855769,83.8135055 L164.855769,83.8135055 C164.598398,84.0935346 164.328827,84.3665919 164.042407,84.6344205 L164.042407,84.6344205 C163.766445,84.8941155 163.479444,85.1450959 163.187215,85.3786471 L163.187215,85.3786471 C163.105878,85.4431351 163.025123,85.5070422 162.960635,85.5593297 L162.960635,85.5593297 C162.906604,85.6023218 162.838631,85.6522854 162.753228,85.7156115 L162.753228,85.7156115 C162.682349,85.7684801 162.602756,85.8259964 162.535363,85.8759601 L162.535363,85.8759601 C162.463322,85.9259238 162.387796,85.9799543 162.311688,86.0310799 L162.311688,86.0310799 C162.049088,86.2216391 161.629626,86.5132876 161.359473,87.1901213 L161.359473,87.1901213 C161.257803,87.4480733 161.206677,87.7437887 161.209001,88.0029027 L161.209001,88.0029027 C161.207258,88.3880878 161.308928,88.7372527 161.433838,88.9969477 L161.433838,88.9969477 C161.603482,89.3368169 161.706314,89.444297 161.742915,89.5052991 L161.742915,89.5052991 L161.760345,89.5320239 L161.783583,89.5628155 C161.794622,89.5773398 161.801594,89.5872164 161.80566,89.5930261 L161.80566,89.5930261 C161.903845,89.7835853 161.998544,89.9782113 162.091499,90.177485 L162.091499,90.177485 C162.183293,90.373273 162.274506,90.5859091 162.36688,90.8020311 L162.36688,90.8020311 C162.454607,91.0164102 162.54001,91.2336942 162.620766,91.4515591 L162.620766,91.4515591 C162.705588,91.6775576 162.786924,91.9087849 162.863032,92.1278118 L162.863032,92.1278118 C163.137832,92.9382693 163.384164,93.7690608 163.597963,94.6103099 L163.597963,94.6103099 C163.812923,95.4550448 163.998253,96.3090753 164.15744,97.1758872 L164.15744,97.1758872 C164.316045,98.0392132 164.449669,98.9106729 164.558311,99.7873613 L164.558311,99.7873613 C164.640228,100.426432 164.723307,100.970223 164.719241,101.357732 L164.719241,101.357732 C164.719241,101.560491 164.700649,101.713287 164.673925,101.817862 L164.673925,101.817862 L164.183583,103.280753 C164.025559,103.499199 163.852429,103.724616 163.686851,103.938414 L163.686851,103.938414 C163.450976,104.237615 163.233692,104.511835 163.039066,104.773273 L163.039066,104.773273 C162.789248,105.115466 162.524324,105.455335 162.25301,105.79288 L162.25301,105.79288 C161.980533,106.129264 161.701666,106.458095 161.414666,106.779373 L161.414666,106.779373 C161.127084,107.103556 160.83253,107.420767 160.532748,107.729264 L160.532748,107.729264 C160.227156,108.044151 159.920984,108.349743 159.60261,108.650687 L159.60261,108.650687 C158.293678,109.898617 156.888885,111.051268 155.406242,112.11503 L155.406242,112.11503 C153.923017,113.181116 152.364847,114.160055 150.749742,115.059983 L150.749742,115.059983 C149.138704,115.959329 147.471311,116.780825 145.772545,117.531442 L145.772545,117.531442 C144.066227,118.282059 142.330861,118.964703 140.587941,119.586344 L140.587941,119.586344 C138.716627,120.251558 136.818007,120.855189 134.896148,121.390847 L134.896148,121.390847 C132.97487,121.924761 131.032676,122.391863 129.07654,122.785763 L129.07654,122.785763 C127.122146,123.17792 125.152648,123.499198 123.179663,123.740302 L123.179663,123.740302 C121.204354,123.982568 119.22556,124.146983 117.246765,124.226576 L117.246765,124.226576 C116.77211,124.24633 116.293969,124.256206 115.815248,124.256206 L115.815248,124.256206 C115.406824,124.256206 114.996657,124.249815 114.584166,124.238777 L114.584166,124.238777 C113.681914,124.217281 112.766301,124.174289 111.838487,124.133621 L111.838487,124.133621 C110.907768,124.090629 109.963105,124.04938 108.999852,124.028465 L108.999852,124.028465 C108.641392,124.020912 108.281188,124.018007 107.920404,124.018007 L107.920404,124.018007 C107.310382,124.018007 106.69397,124.030208 106.076976,124.06158 L106.076976,124.06158 C105.149162,124.105734 104.223091,124.127811 103.280172,124.128973 L103.280172,124.128973 C103.247056,124.128973 103.221493,124.128973 103.200578,124.128973 L103.200578,124.128973 C102.307042,124.128973 101.412343,124.106896 100.522292,124.06158 L100.522292,124.06158 C99.6014499,124.015102 98.6782837,123.945385 97.7597652,123.850106 L97.7597652,123.850106 C96.8429896,123.755988 95.926214,123.636308 95.0169911,123.492226 L95.0169911,123.492226 C93.2659381,123.213359 91.5317334,122.839794 89.8236724,122.369786 L89.8236724,122.369786 C88.1161924,121.901522 86.4377611,121.337397 84.796512,120.680317 L84.796512,120.680317 C83.155844,120.024398 81.5535201,119.276104 80.000579,118.436017 L80.000579,118.436017 C78.4470569,117.596511 76.9434984,116.66463 75.5009422,115.643861 L75.5009422,115.643861 C75.1750163,115.414376 74.8490904,115.177339 74.5353649,114.942626 L74.5353649,114.942626 C74.2123438,114.699198 73.8933896,114.453447 73.581988,114.206533 L73.581988,114.206533 C73.2665196,113.954972 72.9586038,113.702829 72.653012,113.445458 L72.653012,113.445458 C72.3485821,113.188087 72.047638,112.927811 71.7542466,112.664049 L71.7542466,112.664049 C71.614813,112.53914 71.4782843,112.414231 71.3423366,112.289903 L71.3423366,112.289903 C71.1994172,112.159184 71.0698602,112.03776 70.9403032,111.913432 L70.9403032,111.913432 C70.8066794,111.787361 70.6713127,111.65548 70.5539561,111.542771 L70.5539561,111.542771 C70.4145226,111.403338 70.2774129,111.267971 70.1739997,111.163977 L70.1739997,111.163977 C70.0746533,111.06405 70.0304993,111.021058 70.0316613,111.021058 L70.0316613,111.021058 L70.0060985,110.993171 L69.972983,110.959474 C69.950906,110.938559 69.9143047,110.900796 69.8596932,110.844442 L69.8596932,110.844442 C69.7853287,110.764848 69.7295553,110.708494 69.7022495,110.678864 L69.7022495,110.678864 L69.6981827,110.673636 L69.6639053,110.639358 C69.6633243,110.639358 69.6319518,110.603338 69.5587492,110.52723 L69.5587492,110.52723 L69.5587492,110.52723 C69.3728378,110.325052 69.1485821,110.114739 68.8534478,109.92999 L68.8534478,109.92999 L68.8534478,109.929409 C68.546694,109.728973 68.1678995,109.588378 67.8460404,109.530861 L67.8460404,109.530861 L67.8460404,109.530861 C67.5491632,109.474507 67.3312982,109.473345 67.1703687,109.469859 L67.1703687,109.469859 C67.1140143,109.469859 67.077413,109.469859 67.0576599,109.469859 L67.0576599,109.469859 C67.0001436,109.469859 66.96819,109.471021 66.9559896,109.471021 L66.9559896,109.471021 C66.9083498,109.469859 66.8572242,109.469859 66.7764689,109.467535 L66.7764689,109.467535 C65.9026854,109.44662 65.023673,109.384456 64.1522134,109.28511 L64.1522134,109.28511 C63.2755249,109.18344 62.4017414,109.044587 61.5372534,108.870876 L61.5372534,108.870876 C60.6669556,108.694841 59.8065345,108.483367 58.951923,108.239939 L58.951923,108.239939 C58.0984735,107.99593 57.2506013,107.719387 56.4190545,107.413795 L56.4190545,107.413795 C55.9731576,107.248799 55.5353363,107.080898 55.0991998,106.904282 L55.0991998,106.904282 C54.6673044,106.728828 54.2395339,106.545822 53.821698,106.353519 L53.821698,106.353519 C53.3961933,106.158313 52.9829471,105.959039 52.5846319,105.748726 L52.5846319,105.748726 C52.1798099,105.53609 51.7921846,105.319968 51.4000278,105.077703 L51.4000278,105.077703 C50.8499043,104.768044 50.4915601,104.763396 50.2103691,104.741319 L50.2103691,104.741319 C50.1702239,104.740157 50.1297881,104.740157 50.0908048,104.740157 L50.0908048,104.740157 C49.8976313,104.740157 49.7608121,104.75352 49.640725,104.766301 L49.640725,104.766301 C49.4893815,104.781987 49.3681905,104.799997 49.2901077,104.811036 L49.2901077,104.811036 L49.2828455,104.812779 L49.2510663,104.817427 C49.228176,104.820912 49.2086553,104.823236 49.1945957,104.82556 L49.1945957,104.82556 C48.9544795,104.837761 48.7220903,104.849961 48.4919668,104.860419 L48.4919668,104.860419 C48.2475514,104.869714 47.9981397,104.879591 47.7487279,104.888305 L47.7487279,104.888305 C47.4957141,104.89702 47.2374135,104.905154 46.9954963,104.913868 L46.9954963,104.913868 C46.7402167,104.92084 46.4835428,104.928392 46.237733,104.935945 L46.237733,104.935945 C44.9956706,104.966156 43.7550025,104.987071 42.5179365,104.987071 L42.5179365,104.987071 C41.2808704,104.985909 40.0463026,104.964994 38.8201007,104.916192 L38.8201007,104.916192 C37.592795,104.865066 36.3729838,104.785473 35.1638626,104.668116 L35.1638626,104.668116 C33.95631,104.549598 32.756891,104.391573 31.5772251,104.187652 L31.5772251,104.187652 C31.0650392,104.099344 30.5578496,104.008131 30.0676245,103.902975 L30.0676245,103.902975 C29.5715316,103.796657 29.0897306,103.678138 28.6276827,103.536381 L28.6276827,103.536381 C28.1764989,103.400433 27.7462302,103.242989 27.3513428,103.061726 L27.3513428,103.061726 C26.9553515,102.879881 26.6033399,102.680607 26.2903697,102.455771 L26.2903697,102.455771 C26.015337,102.257659 25.8993748,102.108349 25.8490044,102.024108 L25.8490044,102.024108 C25.7904423,101.922438 25.7731874,101.867245 25.7600575,101.742917 L25.7600575,101.742917 C25.7561649,101.709801 25.7550611,101.675524 25.7550611,101.640085 L25.7550611,101.640085 C25.7550611,101.514594 25.7731874,101.346693 25.8247198,101.1236 L25.8247198,101.1236 C25.8882782,100.841828 26.0055767,100.488596 26.1708054,100.085401 L26.1708054,100.085401 C26.5935796,99.038487 27.0946689,98.0159743 27.6595491,97.0196054 L27.6595491,97.0196054 C28.2268693,96.0220746 28.8585033,95.0489446 29.5420181,94.1054443 L29.5420181,94.1054443 C30.2264626,93.1590391 30.962265,92.2399396 31.7361212,91.3527936 L31.7361212,91.3527936 C32.5088736,90.4627428 33.3195053,89.6005787 34.149193,88.774435 L34.149193,88.774435 L80.5339123,19.5021055 Z M35.7859105,87.045459 L34.1982272,85.6534474 L35.7859105,87.045459 Z" id="path14" fill="#FFFFFF"/>
                        <path d="M53.6762223,39.0588807 C63.3347842,31.94196 79.1907025,17.9740881 79.1907025,17.9740881 C88.2684074,9.98570781 94.6230913,0.933641226 96.1115444,2.14256494 C96.4990535,2.45756276 91.0907748,22.7416697 92.6983274,21.5325485 C95.1436432,19.6927228 103.083222,12.7453301 110.781116,9.11424814 C119.647927,4.93191564 141.673199,6.61786476 148.689611,11.2202757 C151.31561,12.9434419 152.363104,22.3697307 151.704281,30.0474067 C151.60842,31.185533 150.196075,34.2413354 149.361216,35.3440224 C149.304862,35.4178059 149.220621,35.4631799 149.150904,35.5212773 C149.077701,35.5811756 149.007985,35.6367747 148.935944,35.6962664 C148.863903,35.7514007 148.791863,35.81066 148.719822,35.8650971 C148.646038,35.9227297 148.572255,35.9785612 148.500214,36.0341603 C148.359038,36.1405946 148.256786,36.2329693 148.183584,36.3223811 C148.110962,36.4117928 148.068551,36.501437 148.042407,36.5978785 C148.015102,36.696644 148.011035,36.8046469 148.011035,36.9308342 C148.011035,37.0597522 148.015102,37.2083651 148.018587,37.3890477 C148.024397,37.7226425 148.036598,38.0525771 148.054608,38.3855328 C148.070875,38.7143636 148.093533,39.0466221 148.123744,39.3761501 C148.152792,39.7049809 148.184165,40.0360774 148.224252,40.3642691 C148.263758,40.6930999 148.307912,41.0226279 148.354971,41.3489605 C148.440374,41.9276678 148.538558,42.5022502 148.648362,43.0761935 C148.759909,43.6503693 148.881913,44.2213497 149.01728,44.7907614 C149.150904,45.359476 149.295566,45.9241238 149.455334,46.486041 C149.612778,47.050224 149.781841,47.6073191 149.962523,48.1644723 C150.260563,47.4643416 150.530134,46.7526495 150.77821,46.0346248 C151.026866,45.3147411 151.252865,44.5896866 151.462596,43.8559757 C151.670003,43.1238914 151.861725,42.3860556 152.034855,41.644211 C152.210308,40.9045741 152.371238,40.1620324 152.521129,39.4190259 C153.214811,40.5392001 153.889902,41.6714587 154.549887,42.8142909 C155.20813,43.9565421 155.853591,45.1084956 156.484528,46.268176 C157.115464,47.4289603 157.730715,48.5954381 158.337832,49.7662733 C158.944949,50.9375151 159.540446,52.1150895 160.130715,53.2920248 C160.432821,52.7385317 160.720984,52.1754526 160.995203,51.6026712 C161.271165,51.0362224 161.535508,50.4575151 161.788231,49.87538 C162.041536,49.2933031 162.286706,48.707566 162.522581,48.1220613 C162.76078,47.5335936 162.991427,46.9444287 163.219168,46.3564259 C163.470148,46.7798972 163.7159,47.2052276 163.96049,47.6334629 C164.204498,48.0587352 164.445021,48.489701 164.680315,48.9220031 C164.917352,49.3554672 165.150904,49.788234 165.377483,50.2251258 C165.386779,50.241916 165.396655,50.2601004 165.404208,50.2768905 C166.177483,51.5933756 166.287287,52.0883066 167.055914,53.4803763 C167.055334,53.483804 167.051267,53.4860698 167.051267,53.4896719 C167.045457,53.5732158 167.075668,53.6923734 167.151775,53.853942 C167.310381,54.2077546 167.470148,54.5649369 167.624687,54.9194467 C167.779226,55.2777909 167.93086,55.6363675 168.08017,55.996048 C168.227737,56.356658 168.371819,56.7175004 168.514157,57.0806086 C168.654753,57.4437168 168.793024,57.805663 168.925486,58.1722571 C168.946401,58.2338402 168.96964,58.2971663 168.992879,58.3604924 C169.016699,58.4220755 169.037033,58.4842396 169.059691,58.5469847 C169.083511,58.6091489 169.105588,58.671894 169.127084,58.7340581 C169.149161,58.7973842 169.170657,58.8601292 169.192734,58.9211314 C169.243859,59.0733464 169.272908,59.1947698 169.297309,59.2935352 C169.32171,59.3899767 169.343206,59.4660842 169.380969,59.5172098 C169.41757,59.5689164 169.468115,59.5985461 169.558747,59.6101655 C169.647636,59.6188801 169.771383,59.6113275 169.94858,59.5840217 C170.198979,59.5474204 170.448797,59.5079143 170.696873,59.46957 C170.942625,59.4294829 171.1907,59.3888148 171.440519,59.3469847 C171.689175,59.3045737 171.934927,59.2639056 172.183583,59.2197516 C172.43224,59.1755976 172.680896,59.1302817 172.928391,59.0855468 C173.361216,59.0076964 173.794622,58.9246173 174.226285,58.8386332 C174.657367,58.7520682 175.087287,58.6660842 175.518369,58.5771953 C175.950613,58.4865635 176.379952,58.3947698 176.809872,58.2994902 C177.239792,58.2042106 177.669712,58.1066071 178.09847,58.0067378 C178.757294,57.8510951 179.417279,57.6946972 180.075522,57.5301656 C180.733184,57.3647625 181.391426,57.1975004 182.046764,57.0218141 C182.703263,56.8436878 183.356858,56.662366 184.008129,56.471284 C184.658238,56.2817706 185.305442,56.0829616 185.952065,55.8768904 C184.702973,56.5432085 183.432966,57.1695556 182.144367,57.7516906 C180.855769,58.3355105 179.548579,58.8769775 178.226866,59.3783573 C176.902828,59.8791561 175.563685,60.3363819 174.210598,60.7541016 C172.858674,61.1689164 171.493968,61.5436441 170.118224,61.8736368 C170.204789,62.1891052 170.287287,62.5034117 170.369204,62.8188801 C170.449959,63.1355104 170.524905,63.4521408 170.597527,63.769933 C170.672472,64.0877253 170.739284,64.4066796 170.804353,64.7262148 C170.870584,65.046331 170.931586,65.3664472 170.986779,65.6865634 C171.012341,65.8347115 171.036161,65.9816977 171.059981,66.1298458 C171.084963,66.277413 171.108202,66.4243992 171.13086,66.5731283 C171.152937,66.7212765 171.173271,66.8688436 171.194186,67.0169918 C171.213939,67.1657209 171.233111,67.3132881 171.249959,67.4614362 C171.416699,67.466084 171.583438,67.4707318 171.747853,67.4730557 C171.913431,67.4765415 172.08017,67.4788654 172.245747,67.4811893 C172.411325,67.4835132 172.577483,67.4835132 172.744222,67.4846751 C172.909219,67.4858371 173.074215,67.4846751 173.239211,67.4835132 C173.943351,67.4811893 174.649233,67.4643411 175.353953,67.4405212 C176.055769,67.4161203 176.759908,67.3812619 177.462305,67.337108 C178.165282,67.294116 178.86826,67.2400855 179.570656,67.1802452 C180.271891,67.1192431 180.972544,67.0506882 181.672036,66.9757427 C182.769494,66.8560622 183.86521,66.7230194 184.960344,66.5748712 C186.055478,66.4267231 187.14887,66.2617267 188.241099,66.0798822 C189.331586,65.8980376 190.419748,65.6976018 191.503263,65.4797369 C192.58794,65.261872 193.665064,65.0259969 194.739283,64.7668829 C193.622072,65.2607101 192.489756,65.7208408 191.347562,66.1519228 C190.204207,66.5801 189.048071,66.9780666 187.883801,67.3429177 C186.717207,67.7083498 185.541317,68.0412474 184.359037,68.3433534 C183.175595,68.6437165 181.985181,68.9121261 180.78489,69.1497441 C180.200431,69.2653577 179.612486,69.3739997 179.023961,69.4739271 C178.436016,69.5755974 177.844585,69.6668102 177.254898,69.7522132 C176.664629,69.8364543 176.070293,69.9154667 175.478282,69.9834405 C174.885108,70.0537383 174.290773,70.1153214 173.695275,70.1687709 C173.583728,70.1792285 173.466953,70.189105 173.354244,70.1984006 C173.239211,70.2082771 173.12476,70.2169917 173.010889,70.2268683 C172.897599,70.2361638 172.782566,70.2448784 172.669277,70.253012 C172.554244,70.2623076 172.439792,70.2692793 172.325922,70.2785749 C172.076684,70.2942611 171.90123,70.3093664 171.776902,70.3384151 C171.650831,70.3663018 171.576466,70.4087128 171.53115,70.4778486 C171.485254,70.5475654 171.471891,70.6451689 171.470148,70.7875073 C171.467824,70.9298457 171.474215,71.1151761 171.471891,71.3609278 C171.47131,71.5236002 171.468986,71.6862727 171.464919,71.8501071 C171.460853,72.0121986 171.456205,72.1754521 171.44749,72.3392865 C171.440519,72.5025399 171.432966,72.6646314 171.421927,72.8267229 C171.412051,72.9905574 171.401012,73.1532298 171.388231,73.3153213 C171.366735,73.55933 171.347563,73.7388507 171.346401,73.8742175 C171.346401,74.0101652 171.363249,74.1019589 171.413213,74.1693518 C171.463758,74.2367447 171.546256,74.2797367 171.677556,74.315757 C171.810598,74.3529393 171.9907,74.3872167 172.236452,74.4342756 C174.394186,74.8473474 176.592007,75.138415 178.809582,75.3237454 C181.030061,75.5096568 183.269131,75.592155 185.509945,75.5857643 C187.749596,75.5782116 189.993895,75.484094 192.21786,75.3161927 C194.444149,75.1488725 196.651266,74.9124164 198.822362,74.6172821 C196.921418,75.2342755 194.992007,75.7629611 193.042261,76.2045006 C191.091353,76.6454592 189.11895,76.9986909 187.13725,77.2618717 C185.153227,77.5267954 183.157584,77.7039922 181.160199,77.7905572 C179.16107,77.8782842 177.160199,77.8759603 175.166299,77.7841665 C174.936815,77.774871 174.708492,77.7620896 174.48017,77.7493082 C174.251267,77.7353648 174.021782,77.7214214 173.794041,77.7063161 C173.565718,77.6917918 173.336815,77.6737816 173.108492,77.6546095 C172.879008,77.6365994 172.651267,77.6174273 172.422944,77.5970932 C172.33115,77.5889596 172.237614,77.579083 172.142915,77.5709494 C172.049959,77.5610729 171.95468,77.5517773 171.861724,77.5424817 C171.767025,77.5331862 171.67407,77.5221477 171.581114,77.5128521 C171.485254,77.5018136 171.391717,77.4913561 171.29818,77.4814795 C171.155842,77.4646313 171.044876,77.4413924 170.960635,77.4239632 C170.875232,77.407696 170.813068,77.3989814 170.763104,77.4106008 C170.71314,77.4228013 170.674215,77.4576596 170.634709,77.5279574 C170.596946,77.5970932 170.561506,77.7057352 170.510962,77.861436 C170.368042,78.3308622 170.207694,78.7956407 170.031078,79.2546095 C169.851557,79.7112544 169.657512,80.1609276 169.445457,80.60421 C169.235726,81.0463306 169.006822,81.4814794 168.76049,81.9067518 C168.515319,82.3320241 168.2533,82.7474199 167.976176,83.1523581 C167.729843,83.5090756 167.47131,83.8594024 167.201739,84.1986907 C166.931586,84.537979 166.64749,84.8679717 166.35468,85.1880879 C166.060708,85.5082041 165.754535,85.8167008 165.437904,86.1135781 C165.122436,86.4110363 164.794186,86.6968751 164.45606,86.9676086 C164.374724,87.0326776 164.293968,87.0971656 164.214375,87.1604916 C164.131296,87.2261416 164.048798,87.2865628 163.965138,87.3487269 C163.881477,87.4108911 163.797236,87.4718932 163.714157,87.5323144 C163.629335,87.5921547 163.544513,87.6514139 163.458529,87.7100922 C163.344077,87.7885236 163.281913,87.8564974 163.256931,87.9238903 C163.231949,87.9912832 163.241245,88.0569332 163.271456,88.124326 C163.303409,88.1917189 163.356859,88.2643406 163.413213,88.3456768 C163.473634,88.4264321 163.536379,88.5164829 163.592734,88.6210581 C163.711252,88.8493805 163.825123,89.0817697 163.934346,89.3159019 C164.043569,89.550615 164.145239,89.7870711 164.245167,90.0235272 C164.344513,90.2628881 164.43805,90.502249 164.528681,90.7450958 C164.618732,90.9873616 164.705297,91.2313703 164.790119,91.474217 C165.082349,92.338705 165.341463,93.2182983 165.569204,94.1077682 C165.796365,94.9995619 165.991572,95.8989083 166.157149,96.8058073 C166.32505,97.7115444 166.463322,98.6236722 166.577193,99.5381239 C166.689901,100.450252 166.891499,101.485546 166.617861,102.418589 L166.017716,104.207986 C165.78184,104.553665 165.521564,104.892372 165.284527,105.196802 C165.046328,105.499489 164.831949,105.769061 164.680315,105.974725 C164.407258,106.34771 164.123743,106.713142 163.833257,107.072183 C163.542189,107.431806 163.242988,107.784456 162.935653,108.129554 C162.628318,108.475814 162.314012,108.814522 161.993896,109.144514 C161.670294,109.477993 161.342625,109.803919 161.006822,110.122292 C159.623525,111.44052 158.146111,112.651849 156.59317,113.766736 C155.04139,114.881624 153.41699,115.901232 151.742044,116.834855 C150.069423,117.769641 148.344513,118.617862 146.592298,119.392299 C144.836598,120.164993 143.056496,120.865066 141.270585,121.501813 C139.355116,122.182713 137.411761,122.800868 135.441681,123.348726 C133.473925,123.896584 131.484093,124.374725 129.478573,124.778501 C127.474216,125.181696 125.453592,125.510527 123.427157,125.758603 C121.400142,126.006678 119.366155,126.176903 117.332749,126.257658 C116.397964,126.297165 115.464921,126.29426 114.534783,126.271602 C113.602902,126.248363 112.673345,126.205371 111.746112,126.164703 C110.817717,126.122292 109.889903,126.081624 108.962089,126.06129 C108.033113,126.04386 107.104137,126.044441 106.17458,126.092081 C105.215974,126.137978 104.256207,126.161217 103.298182,126.161798 C102.337833,126.163541 101.377485,126.139721 100.420622,126.092081 C99.4649213,126.04386 98.5063156,125.971239 97.5523578,125.872473 C96.5995619,125.774289 95.646185,125.650542 94.6986178,125.499489 C92.8737813,125.210164 91.0657929,124.81975 89.2868533,124.330571 C87.5050087,123.841972 85.7539557,123.252865 84.040085,122.568479 C82.3297002,121.883512 80.6564976,121.102684 79.0326778,120.224253 C77.4100199,119.346402 75.8373256,118.373272 74.3273765,117.304282 C73.9857643,117.062597 73.647057,116.815683 73.3118355,116.565865 C72.976614,116.313723 72.6442974,116.057513 72.3166285,115.796657 C71.9883787,115.5358 71.6641957,115.271457 71.3440796,115.000142 C71.0245443,114.731152 70.707333,114.456933 70.3959314,114.176322 C70.2512691,114.046185 70.1089307,113.917208 69.9654303,113.785328 C69.821349,113.652866 69.6795916,113.522147 69.5384151,113.38678 C69.3978196,113.252575 69.2583861,113.117789 69.1195335,112.983585 C68.9812619,112.846475 68.8424093,112.708784 68.7058806,112.571675 C68.6530121,112.516482 68.5954957,112.461871 68.5426272,112.404935 C68.4868538,112.349743 68.4339852,112.29397 68.3787928,112.238196 C68.3259242,112.18068 68.2713127,112.124325 68.2196061,112.069133 C68.1638327,112.012779 68.1132881,111.955262 68.0575146,111.898327 C67.9500346,111.78097 67.8524311,111.698472 67.7571515,111.642118 C67.6641958,111.582278 67.5724021,111.548581 67.4747986,111.52999 C67.3766141,111.509656 67.271458,111.504427 67.1517776,111.503265 C67.0309351,111.501522 66.8938255,111.504427 66.730572,111.499779 C65.7911385,111.478283 64.851124,111.41089 63.9192431,111.304572 C62.9844574,111.196511 62.0549004,111.048944 61.134639,110.863033 C60.2114727,110.67654 59.297602,110.452866 58.3930269,110.194914 C57.4907175,109.936381 56.596077,109.644151 55.7143922,109.320549 C55.2542034,109.150324 54.7952927,108.97487 54.3373116,108.788378 C53.8800277,108.603628 53.4239057,108.408421 52.9734192,108.201595 C52.5236298,107.994769 52.0776748,107.779228 51.6414802,107.549743 C51.2039493,107.320259 50.7743197,107.080898 50.3567743,106.822946 C50.3045449,106.791573 50.2303546,106.777049 50.143441,106.773563 C50.0571665,106.769496 49.9573553,106.776468 49.8599842,106.786925 C49.7598826,106.797964 49.6600133,106.813069 49.5703691,106.82527 C49.4814221,106.839213 49.4024679,106.850252 49.3468688,106.854318 C49.0904272,106.866519 48.8368906,106.879881 48.5827148,106.890339 C48.3285391,106.901958 48.0732595,106.911254 47.8172828,106.920549 C47.563107,106.929264 47.3073046,106.937397 47.0542908,106.946693 C46.7989531,106.954246 46.5414077,106.961217 46.2883358,106.968189 C45.0356416,106.998981 43.7776605,107.019896 42.5177041,107.019896 C41.2581544,107.019315 39.9968036,106.9984 38.7368473,106.947274 C37.4761937,106.895567 36.2182126,106.813069 34.9650536,106.691646 C33.7134632,106.567899 32.4657072,106.404645 31.2300355,106.191428 C30.7103551,106.101377 30.1758598,106.005517 29.6421198,105.890484 C29.1072179,105.776032 28.5691206,105.644732 28.0421779,105.483222 C27.515642,105.325197 26.9982274,105.136381 26.5050974,104.909801 C26.0098759,104.682641 25.5405658,104.41946 25.1025702,104.105735 C24.6527808,103.782132 24.3264482,103.437615 24.1081185,103.073926 C23.8879878,102.708494 23.7703988,102.326214 23.7347852,101.925342 C23.6991715,101.52389 23.7415826,101.106751 23.8426138,100.672183 C23.9413211,100.237616 24.0967895,99.7879423 24.285141,99.3231638 C24.7446907,98.1861994 25.2859253,97.0823505 25.8918803,96.013941 C26.4989391,94.9466933 27.1711831,93.9113992 27.8946689,92.9127065 C28.6186195,91.9122708 29.3924757,90.9461125 30.2015388,90.0177174 C31.0099048,89.0875795 31.853013,88.1917189 32.7153514,87.3330407 L32.8578641,87.1825686 C26.3945382,81.5180808 16.7118079,71.9802451 4.6080696,57.9886115 C4.6080696,57.9886115 27.7502971,58.4243994 53.6639638,39.070442" id="path16" fill="#231F20"/>
                        <path d="M72.6320969,70.6974565 C71.1697876,70.8194608 69.4251254,71.0942611 68.28758,71.2888871 C69.2729104,52.7110517 76.9673183,45.0678275 80.2480735,42.6348283 C74.1908478,53.9421918 72.32941,66.3552634 72.6320969,70.6974565" id="path18" fill="#918F90"/>
                        <path d="M118.951921,74.4011601 C107.772256,75.6270134 95.6392133,74.8519952 84.1981097,72.4020316 C95.170949,73.7522131 107.447492,73.0103104 118.380244,72.3265051 C118.985037,73.0527215 118.951921,74.4011601 118.951921,74.4011601" id="path20" fill="#918F90"/>
                        <path d="M118.954245,66.105445 C109.254318,65.9166287 94.7799541,60.1556993 87.8291917,57.5685098 C97.2700048,59.7124168 110.928102,63.2569338 119.568334,63.6734915 C119.681624,64.4717486 119.322001,65.6447333 118.954245,66.105445" id="path22" fill="#918F90"/>
                        <path d="M153.567462,84.5443697 C156.528101,83.7774852 158.636452,81.8957133 161.847491,81.6569333 C156.636743,85.641247 154.774724,87.2854009 144.796511,91.5636869 C144.796511,91.5636869 145.180534,91.1796637 153.567462,84.5443697" id="path24" fill="#918F90"/>
                        <path d="M135.838486,99.6066787 C136.489757,102.552793 134.2228,107.360927 129.932313,110.128683 C125.147419,113.215393 116.019169,116.63442 107.513142,114.15076 C102.250687,112.615248 103.016991,113.60174 90.7363812,101.979373 C95.8901937,105.926504 101.924761,110.333766 107.175015,111.035582 C112.433403,111.73914 120.246911,111.611907 127.979082,106.870005 C129.480897,105.949743 132.035436,103.330716 131.524761,100.785473 C131.320258,99.7647034 129.809728,98.7886686 127.926213,98.6945509 C122.251849,98.4133599 116.460709,103.482931 105.753955,103.668262 C105.753955,103.668262 118.133911,99.5549721 128.018007,95.7286832 C130.064194,94.9368168 135.281333,97.0782837 135.838486,99.6066787" id="path26" fill="#918F90"/>
                        <path d="M110.253011,97.4297724 C110.277993,98.2838029 109.92418,98.1966569 108.170222,98.90893 C107.333621,99.2505422 107.841392,90.6852555 113.98402,87.7246165 C111.624108,90.1914284 110.15076,93.8323869 110.253011,97.4297724" id="path28" fill="#918F90"/>
                        <path d="M160.57574,79.3243263 C157.149161,79.9796639 156.127229,77.6923728 156.127229,77.6923728 C153.934056,81.555263 147.449815,81.274653 147.340011,78.7387054 C147.126794,73.8074056 154.812487,74.8124891 154.812487,74.8124891 C154.612632,72.8162654 152.849379,72.0342756 150.281478,71.9453867 C150.671892,68.6030484 153.245022,67.7385604 154.169931,67.4027579 C153.75163,69.0184442 154.196075,70.3581682 155.48293,70.4034841 C156.919677,70.4534478 156.245167,66.9832953 156.245167,66.9832953 C158.897309,68.1696424 159.700795,70.3767593 159.931441,71.8344209 C155.445748,72.0784296 156.736089,75.0036292 156.736089,75.0036292 C164.244005,73.7876525 163.297018,78.8037744 160.57574,79.3243263" id="path30" fill="#918F90"/>
                        <path d="M131.468987,54.2256486 C131.632241,52.4600713 132.185908,49.5669995 134.597527,44.7383576 C134.831079,47.0397664 134.933911,54.4051693 137.116046,56.8005796 C135.360926,56.4304416 132.93943,55.6851112 131.468987,54.2256486" id="path32" fill="#FFFFFF"/>
                        <path d="M155.843714,59.8291924 C155.874506,58.5876529 155.558457,56.0516471 152.996946,53.7243269 C152.929553,52.2004344 152.946401,49.2195195 153.872473,47.238343 C154.777048,48.8802893 156.845893,52.9075949 157.914883,56.988931 C157.261289,58.5876529 156.442117,59.4114727 155.843714,59.8291924" id="path34" fill="#FFFFFF"/>
                        <path d="M142.727665,31.1959905 C142.024107,29.3507037 140.196946,27.7008562 139.208711,26.9008563 C140.966736,25.4566152 142.390701,25.6138846 143.366736,26.1124757 C144.19346,29.0318657 142.727665,31.1959905 142.727665,31.1959905" id="path36" fill="#FFFFFF"/>
                        <path d="M126.538849,31.5688591 C123.660128,30.3208707 120.480462,26.9601155 119.452139,25.8115317 C120.578065,23.730486 123.431805,24.2068258 125.098036,24.7099485 C126.393606,27.4662012 126.559183,30.1677262 126.538849,31.5688591" id="path38" fill="#FFFFFF"/>
                        <path d="M120.889467,51.0194323 C115.510237,39.2023229 118.117644,33.080493 119.420767,29.891764 C120.478719,41.164211 124.256787,48.6229182 126.112996,51.6898172 C123.522437,51.3482631 123.193606,51.5933756 120.889467,51.0194323" id="path40" fill="#918F90"/>
                        <path d="M145.66216,49.2537969 C145.117789,48.2457504 144.218442,46.1095123 143.356278,41.945097 C143.712415,40.0819162 144.238776,38.0980092 145.01728,36.3950027 C145.490773,39.2070869 146.745675,45.7005653 148.780243,49.7220031 C148.093533,49.4918797 147.086126,49.2798826 145.66216,49.2537969" id="path42" fill="#918F90"/>
                        <path d="M164.695421,79.459112 C165.180533,78.0920823 165.480896,75.7519226 163.302247,73.4181536 C164.852283,70.7962219 166.94553,70.1798094 160.365428,63.2726201 C161.337396,62.0223659 162.246619,57.571008 162.82643,55.2911533 C165.756859,59.8506884 170.896728,74.9699328 164.695421,79.459112" id="path44" fill="#918F90"/>
                        <path d="M42.2680599,91.2342751 C51.150616,83.3388505 71.1773403,85.9009419 74.0659386,94.566156 C78.6358731,108.274798 61.4570791,108.255044 53.9068106,102.007841 C59.4910661,102.770077 71.6566431,105.050397 70.2413926,97.3339119 C68.309076,86.7909927 47.4416836,91.6368895 31.533013,99.3254877 C45.8855471,82.3523581 45.5575878,83.9953501 62.1373986,77.2031934" id="path46" fill="#918F90"/>
                        <path d="M145.812633,27.9731583 C145.676685,26.1758018 145.235145,24.5814954 145.235145,24.5814954 C143.603773,23.5484671 141.85272,23.5934344 140.711689,23.7896871 C133.075959,20.6908346 126.681769,22.8746545 126.681769,22.8746545 C122.976903,21.2706458 120.486271,22.2412776 119.764703,22.603921 C120.486271,19.7578499 124.906896,19.5992442 127.69731,19.7862014 C133.50065,20.178823 132.733185,19.8484236 137.447201,20.2875231 C140.876685,20.6088593 144.356133,20.618213 145.646474,21.2159762 C147.672908,22.1577917 146.245457,26.6137974 145.812633,27.9731583" id="path48" fill="#918F90"/>
                        <path d="M130.797382,29.9736812 C130.817716,29.9602607 130.839212,29.9498613 130.858385,29.9364408 C131.531732,30.1663319 132.274797,30.2879876 133.007404,30.1030058 C133.423962,29.9975011 133.760345,29.8079876 134.063613,29.5785614 C134.528392,29.730602 134.989103,29.7975882 135.408566,29.7737102 C135.825124,29.7510523 136.183003,29.6151046 136.525196,29.454175 C136.597818,29.4866514 136.66463,29.5459107 136.73609,29.5760632 L137.39898,29.8399993 L138.096729,29.7045163 C138.20479,29.6831946 138.289612,29.6400864 138.395349,29.6116768 C140.494405,31.2533906 141.760926,33.1735649 142.502829,34.706811 C140.264339,38.751604 140.737251,47.7455326 140.40784,52.0883066 C137.228755,49.5669995 136.586779,42.4058087 136.596656,41.1288298 C133.939866,42.4360193 133.701086,44.4049372 132.59898,45.6465348 C132.675087,40.4763389 134.967607,35.7902097 134.967607,35.7902097 C129.914303,38.360551 128.842989,47.2905144 128.623962,51.6239929 C125.5663,47.1504999 123.163396,35.6619889 122.755552,31.8019455 C126.740447,34.2002606 129.113722,35.7489025 129.113722,35.7489025 C130.429626,32.8964407 130.958893,31.6653006 130.797382,29.9736812" id="path50" fill="#918F90"/>
                        <path d="M137.19622,27.5056493 C137.19622,27.5056493 135.934347,27.0576609 136.027302,25.9712993 C136.027302,25.9712993 135.632241,27.4900211 134.784601,27.5295273 C134.265792,27.5533472 133.284528,27.1720545 132.837179,26.1403625 C132.837179,26.1403625 132.568769,27.7303697 131.853591,27.8867095 C131.144223,28.0482782 129.599416,27.355642 129.569205,26.5091642 C129.569205,26.5091642 129.555262,28.3399267 128.27654,28.2114735 C128.27654,28.2114735 127.990701,26.343703 127.157005,24.9830059 C129.221783,24.5233981 134.149016,23.7211904 138.901376,25.135279 C138.499924,25.8447052 138.592299,27.2628606 137.19622,27.5056493" id="path52" fill="#FFFFFF"/>
                        <path d="M115.42832,75.5660112 C116.715175,75.5555537 117.989249,75.50559 119.248218,75.4132153 C119.564848,76.3735638 119.974434,77.2909204 120.524035,78.1048637 C119.272619,78.3663016 117.991573,78.6219298 116.681479,78.8665195 C116.139431,77.8213488 115.731588,76.7070424 115.42832,75.5660112" id="path54" fill="#918F90"/>
                        <path d="M118.22861,67.3638327 C118.212924,67.725198 118.206533,68.0981828 118.206533,68.4781392 C118.206533,69.1055901 118.333766,70.6800273 118.382568,71.3312981 C117.167172,71.4079866 115.966301,71.4370353 114.723018,71.4962945 C114.621929,70.1362364 114.494696,67.9227289 114.559765,66.6957137 C115.733911,66.9495989 116.958603,67.1761784 118.22861,67.3638327" id="path56" fill="#918F90"/>
                        <path d="M140.626286,55.7067234 C140.626286,55.7067234 140.230062,54.8840073 139.695567,54.4982412 C139.158747,54.1135789 138.5098,54.0495557 137.939866,54.1146827 C137.939866,54.1146827 137.698762,54.735162 137.831224,55.3767306 C137.961362,56.0185316 138.469132,56.6861859 138.504572,57.11965 C139.42309,57.349541 143.993025,57.8946681 146.658529,58.1722571 C151.552066,58.6840944 151.484092,58.9397226 155.158166,58.8851111 C154.993751,58.282642 153.379807,55.6828454 152.633838,55.2115019 C151.263903,55.3767306 151.208711,55.7067234 150.716046,56.6373842 C150.716046,56.6373842 149.563395,54.9373407 148.686126,54.6636442 C148.59898,54.8020901 146.946111,55.8176892 146.986198,56.3636878 C146.986198,56.3636878 146.564993,55.6519957 146.383729,55.2662296 C146.200723,54.8829035 145.669713,54.5969485 145.293243,54.5764983 C145.061434,54.5649369 144.680316,54.827072 144.35439,55.0472027 C144.029045,55.2698316 143.861725,55.6508919 143.559619,55.9640364 C143.559619,55.9640364 143.381841,55.5956994 143.126794,55.2099333 C142.765429,54.5551766 142.437179,53.8968178 141.395494,54.3890763" id="path58" fill="#FFFFFF"/>
                        <path d="M121.220622,81.8777031 C109.253156,83.7048636 96.163251,83.4742172 83.7478556,81.4419733 C95.6124885,82.3384148 108.786635,80.9644134 120.512415,79.7205499 C121.197383,80.4560619 121.220622,81.8777031 121.220622,81.8777031" id="path60" fill="#918F90"/>
                        <path d="M114.943207,62.581843 C114.833403,61.8126346 117.573272,58.996077 117.573272,58.996077 C119.546838,56.7472462 122.014231,54.7183719 122.014231,54.7183719 C122.014231,54.7183719 146.495857,60.4101655 152.143497,63.490485 C146.837469,66.7143048 145.102102,71.7606373 145.467534,73.580826 C142.473199,75.8361637 142.565574,78.6614359 142.983874,80.3410292 C124.372982,88.902249 119.636308,82.7677539 119.636308,82.7677539 C119.614812,82.7503247 119.596802,82.7334765 119.575887,82.7166283 C121.281624,82.4749435 121.416409,82.6300633 123.083802,82.3523581 C123.083802,82.3523581 126.702103,82.7909928 129.552938,82.0229464 C133.391427,81.146258 133.830643,80.5972384 139.147709,77.990412 C139.290628,75.8001433 140.137106,73.7795189 141.673199,72.0941158 C141.696438,71.247638 141.841681,70.2785749 142.177484,69.2432808 C139.540447,70.4302088 133.498326,72.3462582 125.264194,69.9648494 C125.264194,69.9648494 133.816119,70.0752343 142.018297,65.0637602 C141.615102,63.7112548 139.973272,62.7032664 138.984455,62.2832228 C132.514739,59.5433536 128.45548,57.4053726 122.42556,58.8304996" id="path62" fill="#918F90"/>
                        <path d="M153.896873,92.987652 C154.505733,91.9982548 155.573562,91.4608546 156.856931,91.7827138 C157.673199,91.9854734 157.989248,92.3137232 158.392443,92.987652 C158.738122,93.5633964 158.605661,94.1931712 158.452284,94.8084217 C158.446474,94.8293368 158.434273,94.8519947 158.429626,94.8740717 L162.450541,95.9494529 C162.779371,94.413941 162.668986,94.2274486 162.122291,92.987652 C161.727229,92.0946963 160.888885,91.0076956 158.98155,90.1083492 C155.405661,88.4241082 152.400868,90.6910653 150.907186,91.9877973 L153.896873,92.987652" id="path64" fill="#5F9A7E"/>
                        <path d="M123.72113,93.1927355 C122.644587,92.3311524 121.382713,91.5305714 119.793171,91.8919367 C118.787506,92.1190972 117.918951,92.685546 117.419895,93.4425539 C116.994623,94.089177 116.969641,94.9281022 117.160781,95.6194602 C117.167172,95.6444421 117.29731,95.7205495 117.272328,95.7286832 C114.313432,96.8255604 114.584747,96.8813338 112.483948,97.2519947 C111.043134,97.5082038 111.877412,94.2326774 112.554827,92.8383419 C113.041101,91.8350013 114.092662,90.5208401 116.32999,89.9602011 C122.070004,88.5211307 125.711544,90.3488721 127.559619,91.8042098 C127.559619,91.8042098 124.516482,93.831225 123.72113,93.1927355" id="path66" fill="#5F9A7E"/>
                        <path d="M118.682931,94.9612177 C118.468552,94.1368168 119.089031,93.2781386 120.068552,93.0428444 C120.941754,92.8336941 121.791718,93.1880877 122.125778,93.8469112 L118.749743,95.1407384 C118.72418,95.0808981 118.699779,95.0245437 118.682931,94.9612177" id="path68" fill="#FFFFFF"/>
                        <path d="M157.462305,94.241392 C157.624978,93.6546091 157.157876,93.0451683 156.418878,92.87901 C155.760635,92.7296999 155.120403,92.9818423 154.86826,93.4506876 L157.410599,94.3680441 C157.430352,94.3244711 157.448943,94.2855459 157.462305,94.241392" id="path70" fill="#FFFFFF"/>
                        <path d="M151.092516,103.330716 C150.75439,102.528973 150.101957,99.1267949 153.10675,98.6643403 C157.790555,97.9404478 156.528101,99.2377608 165.301376,100.554246 C165.301376,100.554246 162.490628,98.8397942 153.78765,96.2777027 C152.031369,95.7606367 148.783729,97.5837303 148.31837,99.6926627 C147.775741,102.150179 149.665065,106.161798 153.247345,108.472328" id="path72" fill="#918F90"/>
                        <path d="M11.0350615,59.4875802 C11.0350615,59.4875802 17.7049233,61.1944792 31.429716,57.8433682 C48.0843561,53.7765564 83.4079863,21.1626429 82.9141591,21.65647 C63.9976745,39.914654 37.6815677,70.0142321 11.0350615,59.4875802" id="path74" fill="#918F90"/>
                        <path d="M105.45824,9.25722562 L105.45824,4.67502094" id="path76" fill="#231F20"/>
                        <polyline id="path78" fill="#231F20" points="98.4673904 8.89638322 98.4673904 11.0972837 97.6453135 11.0972837 97.6453135 11.3916047 99.6235269 11.3916047 99.6235269 11.0972837 98.7979641 11.0972837 98.7979641 8.89638322 98.4673904 8.89638322"/>
                        <path d="M99.9517767,8.89638322 L99.9517767,11.3916047 L100.448509,11.3916047 L101.039358,9.6250978 C101.09397,9.45986904 101.133476,9.33734181 101.158458,9.25542461 C101.186926,9.34617261 101.23108,9.47985452 101.291501,9.6552503 L101.888741,11.3916047 L102.333186,11.3916047 L102.333186,8.89638322 L102.014812,8.89638322 L102.014812,10.9849235 L101.289758,8.89638322 L100.991719,8.89638322 L100.27015,11.0205371 L100.27015,8.89638322 L99.9517767,8.89638322" id="path80" fill="#231F20"/>
                    </g>
                </g>
            </g>
        </g>
    </g>
</svg>